<?xml version="1.0" encoding="utf-8"?>
<!-- Generator: Adobe Illustrator 20.1.0, SVG Export Plug-In . SVG Version: 6.00 Build 0)  -->
<svg version="1.1" id="Capa_1" xmlns="http://www.w3.org/2000/svg" xmlns:xlink="http://www.w3.org/1999/xlink" x="0px" y="0px"
	 viewBox="0 0 242.8 40.2" style="enable-background:new 0 0 242.8 40.2;" xml:space="preserve">
<style type="text/css">
	.st0{fill:#FFFFFF;}
	.st1{fill:#CB3524;}
	.st2{fill:#272E61;}
</style>
<title>atm_logo</title>
<path class="st0" d="M30,4c0-1.6-1.1-2-2.6-2.4c-8.2-2.1-16.7-2.1-24.9,0C1.1,1.9,0,2.4,0,4v21.9l0,0c0,1.8,0.9,3.5,2.3,4.6
	l11.8,8.9l0.9,0.7l0.9-0.7l11.8-8.9c1.5-1.1,2.3-2.8,2.3-4.6L30,4z"/>
<path class="st1" d="M4.7,25.1l-1.5,1.2l-1.6,1.2c0.3,0.8,0.8,1.5,1.4,2l0,0l1.7,1.3V25.1z"/>
<polygon class="st1" points="8.8,22 8.8,22 8.8,33.9 12.9,37.1 12.9,18.8 "/>
<polygon class="st1" points="21.2,12.5 21.2,12.5 17,15.7 17,37.1 21.2,34 "/>
<path class="st1" d="M28.7,23.6V6.7l-0.9,0.7l-2.5,1.9v21.5l1.7-1.3l0,0c0.3-0.2,0.6-0.5,0.8-0.8c0.6-0.8,0.9-1.7,0.9-2.6V23.6z"/>
<path class="st2" d="M30,4c0-1.6-1.1-2-2.6-2.4c-8.2-2.1-16.7-2.1-24.9,0C1.1,1.9,0,2.4,0,4v21.9l0,0c0,1.8,0.9,3.5,2.3,4.6
	l11.8,8.9l0.9,0.7l0.9-0.7l11.8-8.9c1.5-1.1,2.3-2.8,2.3-4.6L30,4z M26.5,3.8l0.4-1.1l0.4,1.1h1.1l-0.9,0.7l0.4,1.1l-0.9-0.7
	l-0.9,0.7l0,0l0.4-1.1l-0.9-0.7H26.5z M18.3,7.1c0.3-0.2,0.5-0.4,0.6-0.8c1.3,0.4,2.8-0.4,2.5-1.8h0.3l0.9,0.1l0.9,0.2l-7.9,6v-4
	C16.9,7.5,17.8,7.5,18.3,7.1 M19.9,12.8L19.9,12.8l-0.9-0.7L18,12.8l0.4-1.1l-1-0.7h1.2l0.4-1.1l0.4,1.1h1.2l-0.9,0.7L19.9,12.8z
	 M13.2,2.2h1.2l0.4-1.1L15,2.2h1.2l-0.9,0.7L15.6,4l-0.9-0.7L13.7,4l0.4-1.1L13.2,2.2z M4.2,5.4L4.2,5.4l1.4-0.3L7,4.8
	c0,0.1,0,0.2,0.1,0.2l0,0c0.5,1.1,1.8,1.6,3,1.2c0.3,0.6,1,0.9,1.6,1c0.7,0.1,1.3,0,1.9-0.2v5.3l-4.9,3.8c0-0.1,0-0.3,0-0.4v-0.1
	c0.6-0.4,1.1-1.1,1.2-1.8c0.1-0.3,0.2-0.7,0.1-1.1c-0.1,0-0.2,0.1-0.3,0.1c-0.2,0-0.3,0-0.5,0c0.3,0,0.7-0.1,0.9-0.4l0.2-0.2
	c0.4-0.4,0.8-0.9,0.9-1.5L12.2,8c-0.4,0-0.8,0.2-1.1,0.5l-0.4,0.6l-0.4,0.6c-0.1,0.2-0.3,0.3-0.4,0.4L9.3,9.6L9.2,9.6L9,8.5l0.4-0.7
	c0.2-0.3,0.2-0.7,0-1C9.3,6.8,9.1,6.8,9.1,6.8L8.1,7.4L8,7.3c-0.1,0-0.1,0-0.2,0c-0.1,0-0.2,0.1-0.3,0.2L7.3,7.7L7,7.9H6.4
	c-0.2,0-0.3,0.3-0.1,0.6C6.5,8.8,6.6,9,6.6,9.3l0,0v0.1c0.1,0.3,0.1,0.7,0.1,1c-0.1,1.3-0.4,2.6-1,3.8l-0.1,0.1l-0.4,0.7
	c-0.1,0.1-0.1,0.3,0,0.4c0.1,0.1,0.2,0.1,0.3,0.1C5.8,16,5.9,16.4,6,16.9c0.1,0.5,0,0.9-0.1,1.4l-0.8,0.6l-0.9,0.7L4.2,5.4z
	 M12.4,16.8l-0.9,0.7l0.4,1.1l-0.9-0.7l-0.9,0.7l0.4-1.1l-0.9-0.7h1.2l0.4-1.1l0.4,1.1H12.4z M0.7,3.8h1.1l0.4-1.1l0.4,1.1h1.2
	L2.8,4.5l0.4,1.1L2.2,4.9L1.2,5.6l0,0l0.4-1.1L0.7,3.8z M3.7,13.2l-0.9,0.7L3.1,15l-0.9-0.7L1.2,15l0.4-1.1l-0.9-0.7h1.2l0.4-1.1
	l0,0l0.4,1.1L3.7,13.2z M1.2,24.9l0.4-1.1l-0.9-0.7h1.2L2.2,22l0.4,1.1h1.2l-0.9,0.7l0.4,1.1l0,0l-0.9-0.7L1.2,24.9L1.2,24.9
	L1.2,24.9z M27.8,28.7c-0.2,0.3-0.5,0.6-0.8,0.8l0,0l-12,9.1L3,29.5l0,0c-0.7-0.5-1.2-1.2-1.4-2l1.6-1.2l1.5-1.2L8.8,22l4.1-3.1
	l4.1-3.1l4.1-3.1l4.1-3.1l3.5-2.6v19.4C28.7,27.1,28.4,28,27.8,28.7"/>
<path class="st0" d="M205.2,25.6c-1.1,1.6-2.9,2.4-4.8,2.3h-5.3c-0.2,0-0.3-0.2-0.3-0.3v-15c0-0.2,0.2-0.3,0.3-0.3h5.3
	c1.9-0.1,3.7,0.7,4.7,2.3c1,1.3,1,2.9,1,5.5S206.1,24.2,205.2,25.6 M202.4,15.9c-0.6-0.7-1.4-1.1-2.3-1h-2c-0.2,0-0.3,0.2-0.3,0.3
	v9.5c0,0.2,0.2,0.3,0.3,0.3h2c0.9,0.1,1.7-0.3,2.3-1c0.6-0.7,0.6-1.7,0.6-4.1S203,16.5,202.4,15.9"/>
<path class="st0" d="M241.8,25.6c-1.1,1.5-2.9,2.4-4.7,2.3h-5.3c-0.2,0-0.3-0.2-0.3-0.3v-15c0-0.2,0.2-0.3,0.3-0.3h5.3
	c1.9-0.1,3.7,0.7,4.7,2.3c1,1.3,1,2.9,1,5.5S242.8,24.2,241.8,25.6 M239.1,15.8c-0.6-0.7-1.4-1.1-2.3-1h-2c-0.2,0-0.3,0.2-0.3,0.3
	v9.5c0,0.2,0.2,0.3,0.3,0.3h2c0.9,0.1,1.7-0.3,2.3-1c0.6-0.7,0.6-1.7,0.6-4.1S239.7,16.5,239.1,15.8"/>
<path class="st0" d="M173.4,27.9c-0.1,0-0.3-0.1-0.3-0.3c0,0,0,0,0,0V19c0-0.1-0.1-0.2-0.1,0l-2.8,5.4c-0.1,0.1-0.2,0.2-0.4,0.2
	h-1.5c-0.2,0-0.3-0.1-0.4-0.2l-2.8-5.5c-0.1-0.1-0.1-0.1-0.1,0v8.6c0,0.1-0.1,0.3-0.3,0.3l0,0h-2.5c-0.1,0-0.3-0.1-0.3-0.3
	c0,0,0,0,0,0V12.5c0-0.1,0.1-0.3,0.3-0.3l0,0h2.5c0.2,0,0.3,0.1,0.4,0.2l3.9,8c0.1,0.1,0.2,0.1,0.2,0l3.8-8c0.1-0.1,0.2-0.2,0.4-0.2
	h2.5c0.1,0,0.3,0.1,0.3,0.3c0,0,0,0,0,0v15.1c0,0.1-0.1,0.3-0.3,0.3l0,0H173.4z"/>
<path class="st0" d="M189.2,27.9c-0.2,0-0.3-0.1-0.4-0.2l-0.8-2.3c-0.1-0.1-0.2-0.2-0.4-0.2h-5c-0.2,0-0.3,0.1-0.4,0.2l-0.8,2.3
	c-0.1,0.1-0.2,0.2-0.4,0.2h-2.6c-0.1,0-0.2-0.1-0.2-0.2c0,0,0-0.1,0-0.1l5.5-15.1c0.1-0.1,0.2-0.2,0.4-0.2h1.9
	c0.2,0,0.3,0.1,0.4,0.2l5.5,15.1c0,0.1,0,0.2-0.1,0.2c0,0-0.1,0-0.1,0H189.2z M185.4,17.1c0-0.1-0.1-0.1-0.2,0l-1.8,5.2
	c0,0.1,0,0.2,0.1,0.2c0,0,0.1,0,0.1,0h3.4c0.1,0,0.2-0.1,0.2-0.2c0,0,0-0.1,0-0.1L185.4,17.1z"/>
<path class="st0" d="M217.7,27.7l-2.9-5.9c-0.1-0.1-0.2-0.2-0.3-0.2h-1.6c-0.2,0-0.3,0.2-0.3,0.3v5.6c0,0.2-0.2,0.3-0.3,0.3h-2.4
	c-0.2,0-0.3-0.2-0.3-0.3v-15c0-0.2,0.2-0.3,0.3-0.3h5.8c2.6-0.2,4.9,1.8,5.1,4.4c0,0.1,0,0.3,0,0.4c0.1,1.7-0.9,3.3-2.5,4
	c-0.2,0.1-0.2,0.3-0.2,0.4c0,0,0,0,0,0l3.1,5.9c0.1,0.2,0,0.4-0.2,0.5c0,0-0.1,0-0.1,0H218C217.9,27.8,217.8,27.8,217.7,27.7
	 M215.4,14.9h-2.5c-0.2,0-0.3,0.2-0.3,0.3v3.5c0,0.2,0.2,0.3,0.3,0.3h2.5c1.1,0.1,2.1-0.8,2.2-1.9c0.1-1.1-0.8-2.1-1.9-2.2
	C215.6,14.9,215.5,14.9,215.4,14.9"/>
<path class="st0" d="M224.7,12.2h2.5c0.1,0,0.3,0.1,0.3,0.3v15.1c0,0.1-0.1,0.3-0.3,0.3h-2.5c-0.1,0-0.3-0.1-0.3-0.3V12.5
	C224.5,12.3,224.6,12.2,224.7,12.2z"/>
<path class="st0" d="M54.4,27.9c-0.2,0-0.3-0.1-0.3-0.2l-0.8-2.3c-0.1-0.1-0.2-0.2-0.3-0.2h-5c-0.2,0-0.3,0.1-0.3,0.2l-0.8,2.3
	c-0.1,0.1-0.2,0.2-0.3,0.2h-2.7c-0.1,0-0.2-0.1-0.2-0.2c0,0,0-0.1,0-0.1l5.5-15.1c0.1-0.1,0.2-0.2,0.4-0.2h1.9
	c0.2,0,0.3,0.1,0.4,0.2l5.5,15.1c0,0.1,0,0.2-0.1,0.2c0,0-0.1,0-0.1,0H54.4z M50.6,17.1c0-0.1-0.1-0.1-0.2,0l-1.8,5.2
	c0,0.1,0,0.2,0.1,0.2c0,0,0.1,0,0.1,0h3.3c0.1,0,0.2-0.1,0.2-0.2c0,0,0-0.1,0-0.1L50.6,17.1z"/>
<path class="st0" d="M63.9,14.9c-0.1,0-0.3,0.1-0.3,0.3v12.4c0,0.1-0.1,0.3-0.3,0.3l0,0h-2.5c-0.1,0-0.3-0.1-0.3-0.3l0,0V15.2
	c0-0.1-0.1-0.3-0.3-0.3l0,0h-3.5c-0.1,0-0.3-0.1-0.3-0.3v0v-2.2c0-0.1,0.1-0.3,0.3-0.3l0,0h10.7c0.1,0,0.3,0.1,0.3,0.3v2.2
	c0,0.1-0.1,0.3-0.3,0.3H63.9z"/>
<path class="st0" d="M70.4,27.9c-0.1,0-0.3-0.1-0.3-0.3V12.5c0-0.1,0.1-0.3,0.3-0.3h2.5c0.1,0,0.3,0.1,0.3,0.3v12.4
	c0,0.1,0.1,0.3,0.3,0.3h5.8c0.1,0,0.3,0.1,0.3,0.3v2.2c0,0.1-0.1,0.3-0.3,0.3L70.4,27.9z"/>
<path class="st0" d="M101.4,14.9c-0.1,0-0.3,0.1-0.3,0.3v12.4c0,0.1-0.1,0.3-0.3,0.3h-2.5c-0.1,0-0.3-0.1-0.3-0.3V15.2
	c0-0.1-0.1-0.3-0.3-0.3h-3.6c-0.1,0-0.3-0.1-0.3-0.3v-2.2c0-0.1,0.1-0.3,0.3-0.3h10.7c0.1,0,0.3,0.1,0.3,0.3v2.2
	c0,0.1-0.1,0.3-0.3,0.3H101.4z"/>
<path class="st0" d="M107.9,12.2h2.5c0.1,0,0.3,0.1,0.3,0.3v15.1c0,0.1-0.1,0.3-0.3,0.3h-2.5c-0.1,0-0.3-0.1-0.3-0.3V12.5
	C107.6,12.3,107.8,12.2,107.9,12.2z"/>
<path class="st0" d="M119.4,28c-1.6,0.1-3.1-0.5-4.2-1.6c-1.6-1.6-1.6-3.3-1.6-6.3s0-4.7,1.6-6.3c1.1-1.1,2.6-1.7,4.2-1.6
	c2.6-0.2,4.9,1.5,5.6,4c0.1,0.4-0.1,0.7-0.4,0.8c-0.1,0-0.1,0-0.2,0h-1.8c-0.3,0-0.5-0.2-0.6-0.5c-0.3-1.1-1.4-1.8-2.5-1.7
	c-0.8,0-1.5,0.3-2,0.8c-0.6,0.7-0.8,1.4-0.8,4.4s0.2,3.8,0.8,4.4c0.5,0.6,1.2,0.9,2,0.8c1.1,0.1,2.2-0.7,2.5-1.8
	c0.1-0.3,0.4-0.5,0.6-0.5h2.2c0.2,0,0.3,0.2,0.3,0.3c0,0,0,0.1,0,0.1C124.6,26.2,122.2,28.1,119.4,28"/>
<path class="st0" d="M137.2,26.3c-2.4,2.2-6,2.2-8.4,0c-1.6-1.6-1.6-3.3-1.6-6.3s0-4.7,1.6-6.3c2.4-2.2,6-2.2,8.4,0
	c1.6,1.6,1.6,3.3,1.6,6.3S138.8,24.8,137.2,26.3 M135,15.6c-0.5-0.6-1.2-0.9-2-0.8c-0.8,0-1.5,0.3-2,0.8c-0.6,0.7-0.8,1.4-0.8,4.4
	s0.2,3.7,0.8,4.4c0.5,0.6,1.2,0.9,2,0.9c0.8,0,1.5-0.3,2-0.9c0.6-0.7,0.8-1.4,0.8-4.4S135.6,16.3,135,15.6"/>
<path class="st0" d="M81.9,27.9c-0.1,0-0.3-0.1-0.3-0.3V12.5c0-0.1,0.1-0.3,0.3-0.3h9.8c0.1,0,0.3,0.1,0.3,0.3v2.2
	c0,0.1-0.1,0.3-0.3,0.3H85c-0.1,0-0.3,0.1-0.3,0.3v3.1c0,0.1,0.1,0.3,0.3,0.3h5.6c0.1,0,0.3,0.1,0.3,0.3v2.2c0,0.1-0.1,0.3-0.3,0.3
	H85c-0.1,0-0.3,0.1-0.3,0.3v3.3c0,0.1,0.1,0.3,0.3,0.3h6.7c0.1,0,0.3,0.1,0.3,0.3v2.2c0,0.1-0.1,0.3-0.3,0.3L81.9,27.9z"/>
<path class="st0" d="M149.6,22.6c-0.5,0.7-1.3,1.1-2.2,1.1h-2.5c-0.1,0-0.2-0.1-0.2-0.2c0,0,0,0,0,0v-7.1c0-0.1,0.1-0.2,0.2-0.2l0,0
	h2.5c0.9-0.1,1.7,0.4,2.2,1.1c0.4,0.8,0.6,1.7,0.5,2.6C150.2,20.9,150,21.8,149.6,22.6 M148.3,18c-0.3-0.3-0.7-0.5-1.1-0.5h-0.9
	c-0.1,0-0.2,0.1-0.2,0.2c0,0,0,0,0,0v4.5c0,0.1,0.1,0.2,0.2,0.2l0,0h0.9c0.4,0,0.8-0.1,1.1-0.5c0.3-0.3,0.3-0.8,0.3-2
	S148.6,18.3,148.3,18"/>
<path class="st0" d="M151.6,23.7c-0.1,0-0.3-0.1-0.3-0.3c0,0,0,0,0,0v-6.9c0-0.1,0.1-0.3,0.3-0.3l0,0h4.3c0.1,0,0.3,0.1,0.3,0.3
	c0,0,0,0,0,0v0.8c0,0.1-0.1,0.3-0.3,0.3l0,0h-2.9c-0.1,0-0.3,0.1-0.3,0.3c0,0,0,0,0,0V19c0,0.1,0.1,0.3,0.3,0.3l0,0h2.4
	c0.1,0,0.3,0.1,0.3,0.3c0,0,0,0,0,0v0.8c0,0.1-0.1,0.3-0.3,0.3l0,0h-2.4c-0.1,0-0.3,0.1-0.3,0.3c0,0,0,0,0,0v1.2
	c0,0.1,0.1,0.3,0.3,0.3l0,0h2.9c0.1,0,0.3,0.1,0.3,0.3c0,0,0,0,0,0v0.8c0,0.1-0.1,0.3-0.3,0.3l0,0L151.6,23.7z"/>
<path class="st0" d="M144.1,12.2h12.7c0.1,0,0.3,0.1,0.3,0.3v0.8c0,0.1-0.1,0.3-0.3,0.3h-12.7c-0.1,0-0.3-0.1-0.3-0.3v-0.8
	C143.8,12.3,144,12.2,144.1,12.2z"/>
<path class="st0" d="M144.1,26.5h12.7c0.1,0,0.3,0.1,0.3,0.3v0.8c0,0.1-0.1,0.3-0.3,0.3h-12.7c-0.1,0-0.3-0.1-0.3-0.3v-0.8
	C143.8,26.7,143.9,26.5,144.1,26.5z"/>
<path class="st0" d="M92,9.8V8.3c0-0.3-0.2-0.4-0.5-0.3l-6.7,1.5c-0.1,0.1-0.2,0.2-0.2,0.3c0,0.2,0.2,0.4,0.4,0.4l0,0h6.7
	C91.8,10.2,92,10,92,9.8L92,9.8"/>
</svg>
