<svg width="990" height="180" viewBox="0 0 990 180" fill="none" xmlns="http://www.w3.org/2000/svg">
<g clip-path="url(#clip0_1123_1916)">
<path d="M230.57 76C245.53 76 253.23 68.08 253.23 55.87C253.23 46.63 247.29 40.58 238.16 38.93V37.39C246.85 35.41 251.91 30.35 251.91 21.22C251.91 9.67 243.99 2.3 230.57 2.3H181.18V76H230.57ZM199.22 17.48H225.29C230.9 17.48 233.54 19.24 233.54 24.19C233.54 29.14 230.9 30.79 225.29 30.79H199.22V17.48ZM199.22 45.97H225.62C231.89 45.97 234.86 47.95 234.86 53.45C234.86 58.95 231.89 60.82 225.62 60.82H199.22V45.97ZM311.628 76V60.6H275.988V2.3H257.948V76H311.628ZM313.124 45.86C313.124 66.87 325.884 78.2 349.094 78.2C372.304 78.2 385.064 66.87 385.064 45.86V2.3H367.024V45.86C367.024 57.52 361.744 62.58 349.094 62.58C336.444 62.58 331.164 57.52 331.164 45.86V2.3H313.124V45.86ZM454.416 76V60.6H409.866V45.75H452.876V30.35H409.866V17.7H453.976V2.3H391.826V76H454.416ZM535.67 76C550.63 76 558.33 68.08 558.33 55.87C558.33 46.63 552.39 40.58 543.26 38.93V37.39C551.95 35.41 557.01 30.35 557.01 21.22C557.01 9.67 549.09 2.3 535.67 2.3H486.28V76H535.67ZM504.32 17.48H530.39C536 17.48 538.64 19.24 538.64 24.19C538.64 29.14 536 30.79 530.39 30.79H504.32V17.48ZM504.32 45.97H530.72C536.99 45.97 539.96 47.95 539.96 53.45C539.96 58.95 536.99 60.82 530.72 60.82H504.32V45.97ZM581.088 76V2.3H563.048V76H581.088ZM641.503 76V60.6H605.863V2.3H587.823V76H641.503ZM698.828 76V60.6H663.188V2.3H645.148V76H698.828ZM711.78 49.93V76H729.82V49.93L759.74 2.3H738.4L721.57 33.43H720.03L703.2 2.3H681.86L711.78 49.93ZM774.255 76H801.755L815.175 19.02L828.595 76H856.095L871.825 2.3H853.235L842.785 61.04H841.245L827.165 2.3H803.185L789.105 61.04H787.565L777.115 2.3H758.525L774.255 76ZM892.74 76V2.3H874.7V76H892.74ZM898.046 39.15C898.046 62.03 915.426 78.2 939.626 78.2C966.136 78.2 982.636 61.81 980.656 35.08H941.496V50.48H961.076C958.106 58.4 950.296 62.36 939.626 62.36C925.546 62.36 916.526 53.23 916.526 39.15C916.526 25.07 925.546 15.94 939.626 15.94C950.296 15.94 957.666 20.23 960.416 27.6H979.226C975.706 10.99 960.526 0.0999937 939.626 0.0999937C915.426 0.0999937 898.046 16.27 898.046 39.15Z" fill="#444444"/>
<path d="M179.75 139.15C179.75 162.03 197.13 178.2 221.33 178.2C244.98 178.2 261.15 164.23 262.8 143H244.32C243.11 155.32 234.86 162.36 221.33 162.36C207.25 162.36 198.23 153.23 198.23 139.15C198.23 125.07 207.25 115.94 221.33 115.94C234.64 115.94 242.78 122.76 244.1 134.64H262.8C260.82 113.74 244.76 100.1 221.33 100.1C197.13 100.1 179.75 116.27 179.75 139.15ZM286.086 176V146.08H321.396V176H339.436V102.3H321.396V130.68H286.086V102.3H268.046V176H286.086ZM361.723 176L369.643 156.2H402.643L410.563 176H430.253L398.573 102.3H373.713L342.033 176H361.723ZM385.373 116.82H386.913L396.703 141.24H375.583L385.373 116.82ZM450.791 176V117.48H452.331L478.291 176H508.761V102.3H490.831V160.82H489.291L463.331 102.3H432.861V176H450.791ZM533.36 176V117.48H534.9L560.86 176H591.33V102.3H573.4V160.82H571.86L545.9 102.3H515.43V176H533.36ZM660.588 176V160.6H616.038V145.75H659.048V130.35H616.038V117.7H660.148V102.3H597.998V176H660.588ZM720.282 176V160.6H684.642V102.3H666.602V176H720.282ZM720.103 146.52C721.643 166.54 736.163 178.2 760.143 178.2C781.923 178.2 795.233 169.73 795.233 154.88C795.233 143.22 787.313 136.07 772.243 133.43L748.263 129.14C742.323 128.04 740.343 126.5 740.233 122.98C740.343 118.36 744.963 115.72 756.513 115.72C768.503 115.72 774.663 120.23 775.543 130.02H794.023C792.703 111.32 778.843 100.1 756.513 100.1C735.503 100.1 721.973 108.9 721.973 123.2C721.973 134.64 730.443 141.68 744.963 144.32L768.613 148.61C775.213 149.82 776.973 151.69 776.973 155.32C776.973 160.05 772.023 162.58 760.143 162.58C746.503 162.58 739.683 157.63 738.583 146.52H720.103Z" fill="#649BD2"/>
<path d="M16.817 128.112C42.1211 128.112 69.6442 126.812 92.8269 112.615C117.479 97.5156 134.042 67.5054 134.042 37.9375H116.409C116.409 61.5973 103.232 85.5643 83.6174 97.5774C62.0908 110.762 34.7982 110.602 8.40213 110.445C5.57749 110.429 2.77403 110.412 0 110.412V128.046C2.74015 128.046 5.50865 128.061 8.29818 128.078C11.1033 128.095 13.9452 128.112 16.817 128.112Z" fill="#649BD2"/>
<path d="M116.367 159.334H0V176.398H116.367V159.334Z" fill="#649BD2"/>
<path d="M80.1605 3.68164V20.6648C80.1605 63.6347 56.1059 72.4388 19.9866 72.4388H0.0703125V90.3546H19.9866C39.3 90.3546 98.0761 90.3546 98.0761 20.6648V3.68164H80.1605Z" fill="#649BD2"/>
</g>
<defs>
<clipPath id="clip0_1123_1916">
<rect width="990" height="180" fill="white"/>
</clipPath>
</defs>
</svg>
